<svg xmlns="http://www.w3.org/2000/svg" viewBox="0 0 400 80">
  <!-- X -->
  <path d="M0 10 L25 40 L0 70 L15 70 L30 50 L45 70 L60 70 L35 40 L60 10 L45 10 L30 30 L15 10 Z" fill="#4A5568"/>
  
  <!-- T -->
  <rect x="80" y="10" width="60" height="12" fill="#4A5568"/>
  <rect x="104" y="10" width="12" height="60" fill="#4A5568"/>
  
  <!-- R -->
  <path d="M140 10 L140 70 L152 70 L152 45 L170 45 C180 45 185 40 185 30 L185 25 C185 15 180 10 170 10 Z M152 22 L152 33 L170 33 C173 33 173 30 173 27.5 C173 25 173 22 170 22 Z" fill="#4A5568"/>
  <path d="M170 45 L185 70 L200 70 L180 45" fill="#4A5568"/>
  
  <!-- A -->
  <path d="M220 70 L235 70 L240 55 L265 55 L270 70 L285 70 L260 10 L245 10 Z M245 43 L252.5 25 L260 43 Z" fill="#4A5568"/>
  
  <!-- C -->
  <path d="M305 25 C305 15 315 10 325 10 C335 10 345 15 345 25 L357 25 C357 8 342 0 325 0 C308 0 293 8 293 25 L293 55 C293 72 308 80 325 80 C342 80 357 72 357 55 L345 55 C345 65 335 70 325 70 C315 70 305 65 305 55 Z" fill="#4A5568"/>
  
  <!-- T -->
  <rect x="380" y="10" width="60" height="12" fill="#4A5568"/>
  <rect x="404" y="10" width="12" height="60" fill="#4A5568"/>
  
  <!-- . -->
  <circle cx="460" cy="65" r="6" fill="#00A86B"/>
  
  <!-- i -->
  <rect x="480" y="30" width="8" height="40" fill="#00A86B"/>
  <circle cx="484" cy="20" r="4" fill="#00A86B"/>
  
  <!-- o -->
  <circle cx="510" cy="50" r="20" stroke="#00A86B" stroke-width="8" fill="none"/>
</svg>
